M48
; DRILL file {KiCad 9.99.0-578-g4ef0d3554e} date 2025-04-09T17:12:29-0400
; FORMAT={-:-/ absolute / inch / decimal}
; #@! TF.CreationDate,2025-04-09T17:12:29-04:00
; #@! TF.GenerationSoftware,Kicad,Pcbnew,9.99.0-578-g4ef0d3554e
; #@! TF.FileFunction,Plated,1,2,PTH
FMAT,2
INCH
; #@! TA.AperFunction,Plated,PTH,ComponentDrill
T1C0.0315
; #@! TA.AperFunction,Plated,PTH,ComponentDrill
T2C0.0394
; #@! TA.AperFunction,Plated,PTH,ComponentDrill
T3C0.0472
; #@! TA.AperFunction,Plated,PTH,ComponentDrill
T4C0.0512
%
G90
G05
T1
X4.7717Y-3.8268
X4.7717Y-3.9252
X4.7953Y-2.9047
X4.7953Y-3.3047
X4.7953Y-3.4315
X4.7953Y-3.6283
X4.9701Y-3.8803
X4.9732Y-3.7071
X5.0031Y-2.9378
X5.0031Y-3.0378
X5.0031Y-3.1378
X5.0031Y-3.2378
X5.0031Y-3.3378
X5.0031Y-3.4378
X5.0031Y-3.5378
X5.3031Y-2.9378
X5.3031Y-3.0378
X5.3031Y-3.1378
X5.3031Y-3.2378
X5.3031Y-3.3378
X5.3031Y-3.4378
X5.3031Y-3.5378
X5.3701Y-3.8803
X5.3732Y-3.7071
X5.4606Y-3.0472
X5.4606Y-3.2441
T2
X5.7992Y-3.5425
X5.7992Y-3.6425
X5.7992Y-3.7425
X5.7992Y-3.8425
T3
X4.2717Y-2.7559
X4.2717Y-2.9528
X4.2717Y-3.1496
X4.2756Y-3.6457
X4.2756Y-3.8425
X4.2756Y-4.0394
T4
X4.7539Y-2.6641
X4.9508Y-2.6641
X5.7283Y-3.0059
X5.7283Y-3.2028
M30
