%TF.GenerationSoftware,KiCad,Pcbnew,9.99.0-578-g4ef0d3554e*%
%TF.CreationDate,2025-04-09T17:12:27-04:00*%
%TF.ProjectId,APC,4150432e-6b69-4636-9164-5f7063625858,rev?*%
%TF.SameCoordinates,Original*%
%TF.FileFunction,Soldermask,Top*%
%TF.FilePolarity,Negative*%
%FSLAX46Y46*%
G04 Gerber Fmt 4.6, Leading zero omitted, Abs format (unit mm)*
G04 Created by KiCad (PCBNEW 9.99.0-578-g4ef0d3554e) date 2025-04-09 17:12:27*
%MOMM*%
%LPD*%
G01*
G04 APERTURE LIST*
G04 Aperture macros list*
%AMRoundRect*
0 Rectangle with rounded corners*
0 $1 Rounding radius*
0 $2 $3 $4 $5 $6 $7 $8 $9 X,Y pos of 4 corners*
0 Add a 4 corners polygon primitive as box body*
4,1,4,$2,$3,$4,$5,$6,$7,$8,$9,$2,$3,0*
0 Add four circle primitives for the rounded corners*
1,1,$1+$1,$2,$3*
1,1,$1+$1,$4,$5*
1,1,$1+$1,$6,$7*
1,1,$1+$1,$8,$9*
0 Add four rect primitives between the rounded corners*
20,1,$1+$1,$2,$3,$4,$5,0*
20,1,$1+$1,$4,$5,$6,$7,0*
20,1,$1+$1,$6,$7,$8,$9,0*
20,1,$1+$1,$8,$9,$2,$3,0*%
G04 Aperture macros list end*
%ADD10RoundRect,0.250001X-1.149999X-1.149999X1.149999X-1.149999X1.149999X1.149999X-1.149999X1.149999X0*%
%ADD11C,2.800000*%
%ADD12R,1.600000X1.600000*%
%ADD13C,1.600000*%
%ADD14RoundRect,0.250001X1.149999X-1.149999X1.149999X1.149999X-1.149999X1.149999X-1.149999X-1.149999X0*%
%ADD15R,3.000000X3.000000*%
%ADD16C,3.000000*%
%ADD17RoundRect,0.250000X-0.950000X-0.550000X0.950000X-0.550000X0.950000X0.550000X-0.950000X0.550000X0*%
%ADD18O,2.400000X1.600000*%
%ADD19O,1.600000X1.600000*%
%ADD20C,1.700000*%
%ADD21R,1.700000X1.700000*%
G04 APERTURE END LIST*
D10*
%TO.C,J3*%
X120750000Y-67667500D03*
D11*
X125750000Y-67667500D03*
%TD*%
D12*
%TO.C,C3*%
X121200000Y-97200000D03*
D13*
X121200000Y-99700000D03*
%TD*%
D14*
%TO.C,J1*%
X145500000Y-81350000D03*
D11*
X145500000Y-76350000D03*
%TD*%
D15*
%TO.C,RV2*%
X108600000Y-92600000D03*
D16*
X108600000Y-97600000D03*
X108600000Y-102600000D03*
%TD*%
D15*
%TO.C,RV1*%
X108500000Y-70000000D03*
D16*
X108500000Y-75000000D03*
X108500000Y-80000000D03*
%TD*%
D13*
%TO.C,C2*%
X138700000Y-77400000D03*
X138700000Y-82400000D03*
%TD*%
%TO.C,C1*%
X121800000Y-87160000D03*
X121800000Y-92160000D03*
%TD*%
D17*
%TO.C,U1*%
X127080000Y-74620000D03*
D18*
X127080000Y-77160000D03*
X127080000Y-79700000D03*
X127080000Y-82240000D03*
X127080000Y-84780000D03*
X127080000Y-87320000D03*
X127080000Y-89860000D03*
X134700000Y-89860000D03*
X134700000Y-87320000D03*
X134700000Y-84780000D03*
X134700000Y-82240000D03*
X134700000Y-79700000D03*
X134700000Y-77160000D03*
X134700000Y-74620000D03*
%TD*%
D13*
%TO.C,R3*%
X121800000Y-83940000D03*
D19*
X121800000Y-73780000D03*
%TD*%
D13*
%TO.C,R2*%
X126240000Y-98560000D03*
D19*
X136400000Y-98560000D03*
%TD*%
D13*
%TO.C,R1*%
X136480000Y-94160000D03*
D19*
X126320000Y-94160000D03*
%TD*%
D20*
%TO.C,J2*%
X147300000Y-97600000D03*
X147300000Y-95060000D03*
X147300000Y-92520000D03*
D21*
X147300000Y-89980000D03*
%TD*%
M02*
